<?xml version="1.0" encoding="UTF-8" standalone="no"?>
<svg xmlns="http://www.w3.org/2000/svg" width="270" height="120">
    <g transform="translate(10,10)">
        <g transform="translate(0,5)">
            <g transform="translate(0,0)">
                <text x="60" y="-5" font-family="Helvetica" font-size="8pt" text-anchor="middle" font-weight="bold" fill="#d3d3d3">Monomer-scale</text>
                <g transform="translate(60,10)" font-family="Helvetica" font-size="6pt" text-anchor="middle" fill="#d3d3d3">
                    <text x="0" y="0">Monomer-scale model (ReaDDy)</text>
                    <text x="0" y="8">represents each actin monomer</text>
                    <text x="0" y="16">as an individual object</text>
                </g>
                <g transform="translate(15,38)">
                    <g stroke="#ca562c" fill="#1e1b25" stroke-width="1.5px">
                        <circle cx="13.51" cy="26.27" r="3" />
                        <circle cx="20.85" cy="24.67" r="3" />
                        <circle cx="27.05" cy="22.6" r="3" />
                        <circle cx="33.7" cy="20.31" r="3" />
                        <circle cx="40.36" cy="17.55" r="3" />
                        <circle cx="46.33" cy="15.49" r="3" />
                        <circle cx="52.75" cy="12.96" r="3" />
                        <circle cx="59.41" cy="11.13" r="3" />
                    </g>
                    <g stroke="#ca562c" fill="#1e1b25" stroke-width="1.5px">
                        <circle cx="9.148" cy="23.75" r="3" />
                        <circle cx="16.49" cy="22.37" r="3" />
                        <circle cx="23.61" cy="20.76" r="3" />
                        <circle cx="30.49" cy="19.39" r="3" />
                        <circle cx="37.84" cy="19.39" r="3" />
                        <circle cx="44.72" cy="18.47" r="3" />
                        <circle cx="50.69" cy="17.32" r="3" />
                        <circle cx="56.65" cy="15.72" r="3" />
                        <circle cx="63.31" cy="13.65" r="3" />
                    </g>
                    <circle cx="72.5" cy="2" r="3" stroke="#ca562c" fill="#1e1b25" stroke-width="1.5px" />
                    <path d="M 9.148,23.75 L 13.51,26.27 16.49,22.37 20.85,24.67 23.61,20.76 27.05,22.6 30.49,19.39 33.7,20.31 37.84,19.39 40.36,17.55 44.72,18.47 46.33,15.49 50.69,17.32 52.75,12.96 56.65,15.72 59.41,11.13 63.31,13.65" stroke="#ca562c" fill="none" />
                    <path transform="translate(70,7) rotate(130)" d="m 0,0 l 4,2 -4,2 1,-2 z" fill="#ca562c" stroke="none" />
                </g>
            </g>
            <g transform="translate(130,0)">
                <text x="60" y="-5" font-family="Helvetica" font-size="8pt" text-anchor="middle" font-weight="bold" fill="#d3d3d3">Fiber-scale</text>
                <g transform="translate(60,10)" font-family="Helvetica" font-size="6pt" text-anchor="middle" fill="#d3d3d3">
                    <text x="0" y="0">Fiber-scale model (Cytosim)</text>
                    <text x="0" y="8">represents actin filaments as</text>
                    <text x="0" y="16">collection of connected points</text>
                </g>
                <g transform="translate(8,33) scale(1.2)">
                    <g fill="#008080" stroke="none">
                        <circle cx="21.1" cy="10.32" r="1.5" />
                        <circle cx="19.47" cy="21.28" r="1.5" />
                        <circle cx="41.09" cy="13.88" r="1.5" />
                        <circle cx="46.28" cy="2.541" r="1.5" />
                        <circle cx="57.24" cy="5.044" r="1.5" />
                        <circle cx="57.98" cy="8.825" r="1.5" />
                        <circle cx="52.42" cy="14.85" r="1.5" />
                        <circle cx="55.01" cy="18.88" r="1.5" />
                        <circle cx="61.09" cy="15.67" r="1.5" />
                        <circle cx="43.56" cy="19.69" r="1.5" />
                        <circle cx="44.06" cy="27.41" r="1.5" />
                        <circle cx="53.23" cy="28.08" r="1.5" />
                        <circle cx="59.16" cy="24.12" r="1.5" />
                    </g>
                    <path d="m 53.23,28.22 c -1.47,-2.37 -1.62,-4.65 -1.18,-4.47 m 9.48,-8.13 c -9.33,1.04 -11.69,-2.14 -12.29,-5.674 m -5.03,17.684 c -1.34,-3.12 -1.04,-4.95 -0.74,-8.05 m 8.73,-5.11 c 0.3,0.8 2.23,2.63 2.81,4.72 m 2.23,-14.22 c -1.48,0.903 -3.7,2.088 -3.85,3.877 m -9.04,3.103 c -0.14,-3.873 1.78,-6.032 2.08,-9.128 m -26.81,18.578 c 0.15,0 10.67,-0.34 21.47,-7.48 9.63,-6.407 17.19,-5.051 17.19,-5.051 m -37.18,1.371 c 0.15,0 9.33,-1.534 22.51,9.53 6.23,5.24 15.7,4.45 15.7,4.45" stroke="#008080" fill="none" stroke-width="1px" />
                    <path transform="translate(62,6) rotate(-10)" d="m 0,0 l 4,2 -4,2 1,-2 z" fill="#008080" stroke="none" />
                    <path transform="translate(65,14) rotate(0)" d="m 0,0 l 4,2 -4,2 1,-2 z" fill="#008080" stroke="none" />
                    <path transform="translate(63,23) rotate(10)" d="m 0,0 l 4,2 -4,2 1,-2 z" fill="#008080" stroke="none" />
                </g>
            </g>
            <path d="m 110,43 l 25,0 -2,-4 10,6 -10,6 2,-4 -25,0 z" fill="#ccc" stroke="none" />
            <path d="m 139,53 l -25,0 2,-4 -10,6 10,6 -2,-4 25,0 z" fill="#ccc" stroke="none" />
        </g>
        <g transform="translate(15,95)">
            <path d="m 0,-10 l 0,6 m 0,-3 l 160,0 m 0,-3 l 0,6" stroke="#ca562c" />
            <path d="m 80,-16 l 0,6 m 0,-3 l 140,0 m 0,-3 l 0,6" stroke="#008080" />
            <path d="m 0,0 l 220,0" stroke="#999" fill="none" />
            <g transform="translate(20,-3)" stroke="#999" fill="none">
                <path d="m 0,0 l 0,6" />
                <path d="m 60,0 l 0,6" />
                <path d="m 120,0 l 0,6" />
                <path d="m 180,0 l 0,6" />
            </g>
            <g transform="translate(20,10)" font-family="Helvetica" font-size="6pt" text-anchor="middle" fill="#999">
                <text x="0">1 nm</text>
                <text x="60">10 nm</text>
                <text x="120">100 nm</text>
                <text x="180">1 &#181;m</text>
            </g>
        </g>

    </g>
</svg>
